<svg xmlns="http://www.w3.org/2000/svg" xmlns:xlink="http://www.w3.org/1999/xlink" width="334" zoomAndPan="magnify" viewBox="0 0 250.5 398.999991" height="532" preserveAspectRatio="xMidYMid meet" version="1.0"><defs><g/><clipPath id="b439101302"><path d="M 9.734375 0.398438 L 249.484375 0.398438 L 249.484375 389.6875 L 9.734375 389.6875 Z M 9.734375 0.398438 " clip-rule="nonzero"/></clipPath><clipPath id="557c58b450"><path d="M 9.734375 333.550781 L 9.734375 56.53125 C 9.734375 25.527344 34.867188 0.394531 65.871094 0.394531 L 193.34375 0.394531 C 224.347656 0.394531 249.484375 25.527344 249.484375 56.53125 L 249.484375 333.550781 C 249.484375 364.554688 224.347656 389.6875 193.34375 389.6875 L 65.871094 389.6875 C 34.867188 389.6875 9.734375 364.554688 9.734375 333.550781 Z M 9.734375 333.550781 " clip-rule="nonzero"/></clipPath><clipPath id="fedd67e082"><path d="M 0 8.398438 L 239.753906 8.398438 L 239.753906 397.992188 L 0 397.992188 Z M 0 8.398438 " clip-rule="nonzero"/></clipPath><clipPath id="2e79139d45"><path d="M 0 341.855469 L 0 64.835938 C 0 33.832031 25.136719 8.695312 56.140625 8.695312 L 183.613281 8.695312 C 214.617188 8.695312 239.753906 33.832031 239.753906 64.835938 L 239.753906 341.855469 C 239.753906 372.859375 214.617188 397.992188 183.613281 397.992188 L 56.140625 397.992188 C 25.136719 397.992188 0 372.859375 0 341.855469 Z M 0 341.855469 " clip-rule="nonzero"/></clipPath><clipPath id="8c2c57482b"><path d="M 88.953125 55.625 L 153.792969 55.625 L 153.792969 120.464844 L 88.953125 120.464844 Z M 88.953125 55.625 " clip-rule="nonzero"/></clipPath><clipPath id="a95528e616"><path d="M 121.371094 55.625 C 103.46875 55.625 88.953125 70.140625 88.953125 88.046875 C 88.953125 105.953125 103.46875 120.464844 121.371094 120.464844 C 139.277344 120.464844 153.792969 105.953125 153.792969 88.046875 C 153.792969 70.140625 139.277344 55.625 121.371094 55.625 Z M 121.371094 55.625 " clip-rule="nonzero"/></clipPath><clipPath id="8910461c85"><path d="M 88.953125 55.625 L 153.78125 55.625 L 153.78125 120.453125 L 88.953125 120.453125 Z M 88.953125 55.625 " clip-rule="nonzero"/></clipPath><clipPath id="b97421a27e"><path d="M 121.367188 55.625 C 103.464844 55.625 88.953125 70.140625 88.953125 88.039062 C 88.953125 105.941406 103.464844 120.453125 121.367188 120.453125 C 139.269531 120.453125 153.78125 105.941406 153.78125 88.039062 C 153.78125 70.140625 139.269531 55.625 121.367188 55.625 Z M 121.367188 55.625 " clip-rule="nonzero"/></clipPath><clipPath id="8216b1fa32"><path d="M 90.449219 224.214844 L 155.289062 224.214844 L 155.289062 289.054688 L 90.449219 289.054688 Z M 90.449219 224.214844 " clip-rule="nonzero"/></clipPath><clipPath id="faea833720"><path d="M 122.871094 224.214844 C 104.964844 224.214844 90.449219 238.730469 90.449219 256.636719 C 90.449219 274.539062 104.964844 289.054688 122.871094 289.054688 C 140.777344 289.054688 155.289062 274.539062 155.289062 256.636719 C 155.289062 238.730469 140.777344 224.214844 122.871094 224.214844 Z M 122.871094 224.214844 " clip-rule="nonzero"/></clipPath><clipPath id="0f1bd56aa8"><path d="M 90.449219 224.214844 L 155.277344 224.214844 L 155.277344 289.042969 L 90.449219 289.042969 Z M 90.449219 224.214844 " clip-rule="nonzero"/></clipPath><clipPath id="7d10cf0f05"><path d="M 122.863281 224.214844 C 104.964844 224.214844 90.449219 238.726562 90.449219 256.628906 C 90.449219 274.53125 104.964844 289.042969 122.863281 289.042969 C 140.765625 289.042969 155.277344 274.53125 155.277344 256.628906 C 155.277344 238.726562 140.765625 224.214844 122.863281 224.214844 Z M 122.863281 224.214844 " clip-rule="nonzero"/></clipPath></defs><g clip-path="url(#b439101302)"><g clip-path="url(#557c58b450)"><path fill="#999999" d="M 9.734375 389.6875 L 9.734375 0.09375 L 249.484375 0.09375 L 249.484375 389.6875 Z M 9.734375 389.6875 " fill-opacity="1" fill-rule="nonzero"/></g></g><g clip-path="url(#fedd67e082)"><g clip-path="url(#2e79139d45)"><path fill="#e1e1e1" d="M 0 397.992188 L 0 8.398438 L 239.753906 8.398438 L 239.753906 397.992188 Z M 0 397.992188 " fill-opacity="1" fill-rule="nonzero"/></g></g><g clip-path="url(#8c2c57482b)"><g clip-path="url(#a95528e616)"><path fill="#01ff00" d="M 88.953125 55.625 L 153.792969 55.625 L 153.792969 120.464844 L 88.953125 120.464844 Z M 88.953125 55.625 " fill-opacity="1" fill-rule="nonzero"/></g></g><g clip-path="url(#8910461c85)"><g clip-path="url(#b97421a27e)"><path stroke-linecap="butt" transform="matrix(0.748506, 0, 0, 0.748506, 88.953405, 55.626809)" fill="none" stroke-linejoin="miter" d="M 43.304643 -0.00241711 C 19.387206 -0.00241711 -0.000373518 19.390381 -0.000373518 43.3026 C -0.000373518 67.220037 19.387206 86.607616 43.304643 86.607616 C 67.22208 86.607616 86.60966 67.220037 86.60966 43.3026 C 86.60966 19.390381 67.22208 -0.00241711 43.304643 -0.00241711 Z M 43.304643 -0.00241711 " stroke="#000000" stroke-width="16" stroke-opacity="1" stroke-miterlimit="4"/></g></g><g clip-path="url(#8216b1fa32)"><g clip-path="url(#faea833720)"><path fill="#999999" d="M 90.449219 224.214844 L 155.289062 224.214844 L 155.289062 289.054688 L 90.449219 289.054688 Z M 90.449219 224.214844 " fill-opacity="1" fill-rule="nonzero"/></g></g><g clip-path="url(#0f1bd56aa8)"><g clip-path="url(#7d10cf0f05)"><path stroke-linecap="butt" transform="matrix(0.748506, 0, 0, 0.748506, 90.45108, 224.215419)" fill="none" stroke-linejoin="miter" d="M 43.30253 -0.000768228 C 19.390312 -0.000768228 -0.00248655 19.386812 -0.00248655 43.304249 C -0.00248655 67.221686 19.390312 86.609265 43.30253 86.609265 C 67.219967 86.609265 86.607547 67.221686 86.607547 43.304249 C 86.607547 19.386812 67.219967 -0.000768228 43.30253 -0.000768228 Z M 43.30253 -0.000768228 " stroke="#000000" stroke-width="16" stroke-opacity="1" stroke-miterlimit="4"/></g></g><g fill="#000000" fill-opacity="1"><g transform="translate(68.856547, 163.733965)"><g><path d="M 8.035156 -19.039062 C 10.492188 -19.039062 12.285156 -18.535156 13.414062 -17.527344 C 14.539062 -16.519531 15.105469 -15.109375 15.105469 -13.296875 C 15.105469 -12.46875 14.976562 -11.6875 14.722656 -10.945312 C 14.464844 -10.203125 14.046875 -9.546875 13.464844 -8.976562 C 12.882812 -8.410156 12.117188 -7.960938 11.164062 -7.628906 C 10.214844 -7.300781 9.046875 -7.136719 7.65625 -7.136719 L 5.625 -7.136719 L 5.625 0 L 2.5 0 L 2.5 -19.039062 Z M 7.824219 -16.445312 L 5.625 -16.445312 L 5.625 -9.738281 L 7.332031 -9.738281 C 8.3125 -9.738281 9.144531 -9.855469 9.832031 -10.085938 C 10.515625 -10.316406 11.039062 -10.683594 11.394531 -11.183594 C 11.75 -11.6875 11.925781 -12.351562 11.925781 -13.179688 C 11.925781 -14.28125 11.59375 -15.101562 10.929688 -15.640625 C 10.265625 -16.175781 9.230469 -16.445312 7.824219 -16.445312 Z M 7.824219 -16.445312 "/></g></g></g><g fill="#000000" fill-opacity="1"><g transform="translate(85.250659, 163.733965)"><g><path d="M 9.492188 -14.6875 C 9.734375 -14.6875 10 -14.675781 10.285156 -14.648438 C 10.574219 -14.625 10.820312 -14.589844 11.027344 -14.546875 L 10.742188 -11.679688 C 10.558594 -11.730469 10.335938 -11.769531 10.070312 -11.796875 C 9.808594 -11.824219 9.570312 -11.835938 9.363281 -11.835938 C 8.816406 -11.835938 8.292969 -11.746094 7.800781 -11.570312 C 7.304688 -11.390625 6.867188 -11.121094 6.484375 -10.761719 C 6.101562 -10.402344 5.804688 -9.953125 5.585938 -9.414062 C 5.371094 -8.875 5.261719 -8.25 5.261719 -7.539062 L 5.261719 0 L 2.1875 0 L 2.1875 -14.414062 L 4.582031 -14.414062 L 5 -11.875 L 5.144531 -11.875 C 5.429688 -12.386719 5.785156 -12.855469 6.210938 -13.28125 C 6.636719 -13.707031 7.125 -14.046875 7.675781 -14.304688 C 8.226562 -14.558594 8.832031 -14.6875 9.492188 -14.6875 Z M 9.492188 -14.6875 "/></g></g></g><g fill="#000000" fill-opacity="1"><g transform="translate(96.761695, 163.733965)"><g><path d="M 5.246094 -14.414062 L 5.246094 0 L 2.1875 0 L 2.1875 -14.414062 Z M 3.738281 -19.9375 C 4.207031 -19.9375 4.613281 -19.808594 4.953125 -19.558594 C 5.296875 -19.304688 5.46875 -18.871094 5.46875 -18.257812 C 5.46875 -17.648438 5.296875 -17.214844 4.953125 -16.960938 C 4.613281 -16.703125 4.207031 -16.578125 3.738281 -16.578125 C 3.25 -16.578125 2.839844 -16.703125 2.507812 -16.960938 C 2.171875 -17.214844 2.003906 -17.648438 2.003906 -18.257812 C 2.003906 -18.871094 2.171875 -19.304688 2.507812 -19.558594 C 2.839844 -19.808594 3.25 -19.9375 3.738281 -19.9375 Z M 3.738281 -19.9375 "/></g></g></g><g fill="#000000" fill-opacity="1"><g transform="translate(104.196991, 163.733965)"><g><path d="M 18.476562 -14.6875 C 20.09375 -14.6875 21.308594 -14.273438 22.128906 -13.4375 C 22.949219 -12.605469 23.359375 -11.269531 23.359375 -9.425781 L 23.359375 0 L 20.300781 0 L 20.300781 -8.878906 C 20.300781 -9.972656 20.085938 -10.800781 19.664062 -11.355469 C 19.238281 -11.910156 18.589844 -12.1875 17.722656 -12.1875 C 16.507812 -12.1875 15.632812 -11.800781 15.097656 -11.023438 C 14.566406 -10.246094 14.296875 -9.121094 14.296875 -7.644531 L 14.296875 0 L 11.238281 0 L 11.238281 -8.878906 C 11.238281 -9.609375 11.144531 -10.21875 10.957031 -10.710938 C 10.769531 -11.199219 10.488281 -11.570312 10.105469 -11.816406 C 9.722656 -12.0625 9.242188 -12.1875 8.660156 -12.1875 C 7.816406 -12.1875 7.148438 -11.996094 6.648438 -11.613281 C 6.148438 -11.234375 5.789062 -10.671875 5.574219 -9.929688 C 5.355469 -9.1875 5.246094 -8.277344 5.246094 -7.199219 L 5.246094 0 L 2.1875 0 L 2.1875 -14.414062 L 4.570312 -14.414062 L 5 -12.476562 L 5.167969 -12.476562 C 5.464844 -12.976562 5.832031 -13.394531 6.269531 -13.71875 C 6.707031 -14.042969 7.195312 -14.285156 7.734375 -14.449219 C 8.273438 -14.609375 8.832031 -14.6875 9.414062 -14.6875 C 10.492188 -14.6875 11.398438 -14.5 12.136719 -14.121094 C 12.875 -13.746094 13.425781 -13.167969 13.789062 -12.398438 L 14.023438 -12.398438 C 14.476562 -13.179688 15.105469 -13.753906 15.914062 -14.128906 C 16.71875 -14.5 17.574219 -14.6875 18.476562 -14.6875 Z M 18.476562 -14.6875 "/></g></g></g><g fill="#000000" fill-opacity="1"><g transform="translate(129.641068, 163.733965)"><g><path d="M 7.839844 -14.6875 C 9.660156 -14.6875 11.039062 -14.285156 11.972656 -13.476562 C 12.90625 -12.671875 13.375 -11.410156 13.375 -9.699219 L 13.375 0 L 11.199219 0 L 10.613281 -2.042969 L 10.507812 -2.042969 C 10.101562 -1.523438 9.679688 -1.09375 9.246094 -0.753906 C 8.8125 -0.417969 8.308594 -0.164062 7.742188 0.0078125 C 7.171875 0.175781 6.480469 0.261719 5.664062 0.261719 C 4.804688 0.261719 4.035156 0.101562 3.359375 -0.214844 C 2.683594 -0.53125 2.148438 -1.015625 1.757812 -1.667969 C 1.367188 -2.316406 1.171875 -3.140625 1.171875 -4.140625 C 1.171875 -5.625 1.726562 -6.742188 2.832031 -7.488281 C 3.9375 -8.234375 5.613281 -8.644531 7.851562 -8.722656 L 10.351562 -8.816406 L 10.351562 -9.570312 C 10.351562 -10.570312 10.121094 -11.28125 9.65625 -11.707031 C 9.191406 -12.132812 8.539062 -12.34375 7.695312 -12.34375 C 6.976562 -12.34375 6.277344 -12.242188 5.597656 -12.03125 C 4.921875 -11.824219 4.261719 -11.566406 3.621094 -11.261719 L 2.628906 -13.425781 C 3.332031 -13.796875 4.132812 -14.101562 5.03125 -14.335938 C 5.929688 -14.570312 6.867188 -14.6875 7.839844 -14.6875 Z M 10.339844 -6.886719 L 8.476562 -6.824219 C 6.949219 -6.769531 5.878906 -6.511719 5.261719 -6.042969 C 4.644531 -5.574219 4.335938 -4.929688 4.335938 -4.113281 C 4.335938 -3.402344 4.550781 -2.882812 4.972656 -2.558594 C 5.398438 -2.234375 5.960938 -2.070312 6.652344 -2.070312 C 7.714844 -2.070312 8.59375 -2.371094 9.289062 -2.976562 C 9.988281 -3.578125 10.339844 -4.464844 10.339844 -5.636719 Z M 10.339844 -6.886719 "/></g></g></g><g fill="#000000" fill-opacity="1"><g transform="translate(145.11065, 163.733965)"><g><path d="M 9.492188 -14.6875 C 9.734375 -14.6875 10 -14.675781 10.285156 -14.648438 C 10.574219 -14.625 10.820312 -14.589844 11.027344 -14.546875 L 10.742188 -11.679688 C 10.558594 -11.730469 10.335938 -11.769531 10.070312 -11.796875 C 9.808594 -11.824219 9.570312 -11.835938 9.363281 -11.835938 C 8.816406 -11.835938 8.292969 -11.746094 7.800781 -11.570312 C 7.304688 -11.390625 6.867188 -11.121094 6.484375 -10.761719 C 6.101562 -10.402344 5.804688 -9.953125 5.585938 -9.414062 C 5.371094 -8.875 5.261719 -8.25 5.261719 -7.539062 L 5.261719 0 L 2.1875 0 L 2.1875 -14.414062 L 4.582031 -14.414062 L 5 -11.875 L 5.144531 -11.875 C 5.429688 -12.386719 5.785156 -12.855469 6.210938 -13.28125 C 6.636719 -13.707031 7.125 -14.046875 7.675781 -14.304688 C 8.226562 -14.558594 8.832031 -14.6875 9.492188 -14.6875 Z M 9.492188 -14.6875 "/></g></g></g><g fill="#000000" fill-opacity="1"><g transform="translate(156.621686, 163.733965)"><g><path d="M 0.0117188 -14.414062 L 3.347656 -14.414062 L 6.300781 -6.183594 C 6.433594 -5.8125 6.550781 -5.445312 6.660156 -5.085938 C 6.769531 -4.726562 6.863281 -4.371094 6.945312 -4.023438 C 7.03125 -3.675781 7.097656 -3.328125 7.148438 -2.980469 L 7.226562 -2.980469 C 7.3125 -3.433594 7.4375 -3.9375 7.597656 -4.5 C 7.757812 -5.058594 7.9375 -5.621094 8.136719 -6.183594 L 10.976562 -14.414062 L 14.273438 -14.414062 L 8.085938 1.980469 C 7.730469 2.917969 7.292969 3.71875 6.777344 4.382812 C 6.261719 5.046875 5.652344 5.550781 4.949219 5.890625 C 4.246094 6.234375 3.441406 6.40625 2.539062 6.40625 C 2.105469 6.40625 1.726562 6.382812 1.40625 6.335938 C 1.085938 6.289062 0.8125 6.238281 0.585938 6.183594 L 0.585938 3.738281 C 0.769531 3.78125 1 3.820312 1.277344 3.855469 C 1.554688 3.890625 1.839844 3.90625 2.136719 3.90625 C 2.683594 3.90625 3.15625 3.796875 3.554688 3.582031 C 3.953125 3.363281 4.292969 3.058594 4.570312 2.664062 C 4.847656 2.269531 5.078125 1.820312 5.261719 1.316406 L 5.769531 -0.0390625 Z M 0.0117188 -14.414062 "/></g></g></g><g fill="#000000" fill-opacity="1"><g transform="translate(58.465363, 200.95819)"><g><path d="M 14.296875 0 L 12.4375 -5.285156 L 5.15625 -5.285156 L 3.292969 0 L 0 0 L 7.082031 -19.117188 L 10.546875 -19.117188 L 17.617188 0 Z M 11.628906 -7.96875 L 9.816406 -13.179688 C 9.75 -13.402344 9.648438 -13.722656 9.519531 -14.136719 C 9.386719 -14.546875 9.257812 -14.96875 9.128906 -15.398438 C 8.996094 -15.828125 8.890625 -16.191406 8.800781 -16.484375 C 8.714844 -16.128906 8.609375 -15.730469 8.484375 -15.292969 C 8.359375 -14.855469 8.234375 -14.445312 8.117188 -14.0625 C 8 -13.679688 7.914062 -13.386719 7.851562 -13.179688 L 6.027344 -7.96875 Z M 11.628906 -7.96875 "/></g></g></g><g fill="#000000" fill-opacity="1"><g transform="translate(76.09652, 200.95819)"><g><path d="M 9.699219 -14.6875 C 11.324219 -14.6875 12.589844 -14.269531 13.496094 -13.433594 C 14.402344 -12.59375 14.859375 -11.25 14.859375 -9.402344 L 14.859375 0 L 11.796875 0 L 11.796875 -8.828125 C 11.796875 -9.949219 11.566406 -10.789062 11.105469 -11.347656 C 10.648438 -11.90625 9.933594 -12.1875 8.972656 -12.1875 C 7.574219 -12.1875 6.605469 -11.757812 6.0625 -10.898438 C 5.519531 -10.039062 5.246094 -8.792969 5.246094 -7.160156 L 5.246094 0 L 2.1875 0 L 2.1875 -14.414062 L 4.570312 -14.414062 L 5 -12.460938 L 5.167969 -12.460938 C 5.480469 -12.964844 5.871094 -13.378906 6.335938 -13.707031 C 6.800781 -14.03125 7.320312 -14.277344 7.898438 -14.441406 C 8.476562 -14.605469 9.074219 -14.6875 9.699219 -14.6875 Z M 9.699219 -14.6875 "/></g></g></g><g fill="#000000" fill-opacity="1"><g transform="translate(93.037536, 200.95819)"><g><path d="M 7.550781 -2.214844 C 7.953125 -2.214844 8.347656 -2.25 8.738281 -2.324219 C 9.128906 -2.398438 9.484375 -2.488281 9.804688 -2.589844 L 9.804688 -0.273438 C 9.464844 -0.125 9.027344 0 8.488281 0.105469 C 7.953125 0.207031 7.390625 0.261719 6.808594 0.261719 C 5.996094 0.261719 5.261719 0.125 4.609375 -0.148438 C 3.957031 -0.421875 3.441406 -0.894531 3.058594 -1.5625 C 2.679688 -2.230469 2.488281 -3.15625 2.488281 -4.335938 L 2.488281 -12.082031 L 0.519531 -12.082031 L 0.519531 -13.453125 L 2.628906 -14.53125 L 3.632812 -17.617188 L 5.558594 -17.617188 L 5.558594 -14.414062 L 9.6875 -14.414062 L 9.6875 -12.082031 L 5.558594 -12.082031 L 5.558594 -4.375 C 5.558594 -3.644531 5.742188 -3.101562 6.105469 -2.746094 C 6.472656 -2.390625 6.953125 -2.214844 7.550781 -2.214844 Z M 7.550781 -2.214844 "/></g></g></g><g fill="#000000" fill-opacity="1"><g transform="translate(103.584979, 200.95819)"><g><path d="M 7.929688 -14.6875 C 9.214844 -14.6875 10.316406 -14.421875 11.238281 -13.894531 C 12.15625 -13.363281 12.867188 -12.613281 13.359375 -11.640625 C 13.855469 -10.667969 14.101562 -9.503906 14.101562 -8.152344 L 14.101562 -6.511719 L 4.480469 -6.511719 C 4.515625 -5.113281 4.890625 -4.035156 5.605469 -3.28125 C 6.320312 -2.527344 7.328125 -2.148438 8.621094 -2.148438 C 9.539062 -2.148438 10.367188 -2.238281 11.101562 -2.414062 C 11.835938 -2.59375 12.59375 -2.855469 13.375 -3.203125 L 13.375 -0.714844 C 12.652344 -0.378906 11.917969 -0.128906 11.171875 0.0273438 C 10.425781 0.183594 9.53125 0.261719 8.488281 0.261719 C 7.074219 0.261719 5.832031 -0.015625 4.757812 -0.566406 C 3.6875 -1.117188 2.847656 -1.941406 2.246094 -3.035156 C 1.644531 -4.128906 1.339844 -5.488281 1.339844 -7.109375 C 1.339844 -8.722656 1.613281 -10.097656 2.160156 -11.222656 C 2.707031 -12.351562 3.476562 -13.210938 4.464844 -13.804688 C 5.457031 -14.394531 6.609375 -14.6875 7.929688 -14.6875 Z M 7.929688 -12.382812 C 6.964844 -12.382812 6.1875 -12.070312 5.59375 -11.445312 C 5 -10.820312 4.648438 -9.90625 4.542969 -8.699219 L 11.105469 -8.699219 C 11.097656 -9.417969 10.980469 -10.058594 10.75 -10.613281 C 10.519531 -11.167969 10.171875 -11.601562 9.707031 -11.914062 C 9.242188 -12.226562 8.652344 -12.382812 7.929688 -12.382812 Z M 7.929688 -12.382812 "/></g></g></g><g fill="#000000" fill-opacity="1"><g transform="translate(118.950389, 200.95819)"><g><path d="M 9.699219 -14.6875 C 11.324219 -14.6875 12.589844 -14.269531 13.496094 -13.433594 C 14.402344 -12.59375 14.859375 -11.25 14.859375 -9.402344 L 14.859375 0 L 11.796875 0 L 11.796875 -8.828125 C 11.796875 -9.949219 11.566406 -10.789062 11.105469 -11.347656 C 10.648438 -11.90625 9.933594 -12.1875 8.972656 -12.1875 C 7.574219 -12.1875 6.605469 -11.757812 6.0625 -10.898438 C 5.519531 -10.039062 5.246094 -8.792969 5.246094 -7.160156 L 5.246094 0 L 2.1875 0 L 2.1875 -14.414062 L 4.570312 -14.414062 L 5 -12.460938 L 5.167969 -12.460938 C 5.480469 -12.964844 5.871094 -13.378906 6.335938 -13.707031 C 6.800781 -14.03125 7.320312 -14.277344 7.898438 -14.441406 C 8.476562 -14.605469 9.074219 -14.6875 9.699219 -14.6875 Z M 9.699219 -14.6875 "/></g></g></g><g fill="#000000" fill-opacity="1"><g transform="translate(135.891405, 200.95819)"><g><path d="M 9.699219 -14.6875 C 11.324219 -14.6875 12.589844 -14.269531 13.496094 -13.433594 C 14.402344 -12.59375 14.859375 -11.25 14.859375 -9.402344 L 14.859375 0 L 11.796875 0 L 11.796875 -8.828125 C 11.796875 -9.949219 11.566406 -10.789062 11.105469 -11.347656 C 10.648438 -11.90625 9.933594 -12.1875 8.972656 -12.1875 C 7.574219 -12.1875 6.605469 -11.757812 6.0625 -10.898438 C 5.519531 -10.039062 5.246094 -8.792969 5.246094 -7.160156 L 5.246094 0 L 2.1875 0 L 2.1875 -14.414062 L 4.570312 -14.414062 L 5 -12.460938 L 5.167969 -12.460938 C 5.480469 -12.964844 5.871094 -13.378906 6.335938 -13.707031 C 6.800781 -14.03125 7.320312 -14.277344 7.898438 -14.441406 C 8.476562 -14.605469 9.074219 -14.6875 9.699219 -14.6875 Z M 9.699219 -14.6875 "/></g></g></g><g fill="#000000" fill-opacity="1"><g transform="translate(152.832421, 200.95819)"><g><path d="M 7.839844 -14.6875 C 9.660156 -14.6875 11.039062 -14.285156 11.972656 -13.476562 C 12.90625 -12.671875 13.375 -11.410156 13.375 -9.699219 L 13.375 0 L 11.199219 0 L 10.613281 -2.042969 L 10.507812 -2.042969 C 10.101562 -1.523438 9.679688 -1.09375 9.246094 -0.753906 C 8.8125 -0.417969 8.308594 -0.164062 7.742188 0.0078125 C 7.171875 0.175781 6.480469 0.261719 5.664062 0.261719 C 4.804688 0.261719 4.035156 0.101562 3.359375 -0.214844 C 2.683594 -0.53125 2.148438 -1.015625 1.757812 -1.667969 C 1.367188 -2.316406 1.171875 -3.140625 1.171875 -4.140625 C 1.171875 -5.625 1.726562 -6.742188 2.832031 -7.488281 C 3.9375 -8.234375 5.613281 -8.644531 7.851562 -8.722656 L 10.351562 -8.816406 L 10.351562 -9.570312 C 10.351562 -10.570312 10.121094 -11.28125 9.65625 -11.707031 C 9.191406 -12.132812 8.539062 -12.34375 7.695312 -12.34375 C 6.976562 -12.34375 6.277344 -12.242188 5.597656 -12.03125 C 4.921875 -11.824219 4.261719 -11.566406 3.621094 -11.261719 L 2.628906 -13.425781 C 3.332031 -13.796875 4.132812 -14.101562 5.03125 -14.335938 C 5.929688 -14.570312 6.867188 -14.6875 7.839844 -14.6875 Z M 10.339844 -6.886719 L 8.476562 -6.824219 C 6.949219 -6.769531 5.878906 -6.511719 5.261719 -6.042969 C 4.644531 -5.574219 4.335938 -4.929688 4.335938 -4.113281 C 4.335938 -3.402344 4.550781 -2.882812 4.972656 -2.558594 C 5.398438 -2.234375 5.960938 -2.070312 6.652344 -2.070312 C 7.714844 -2.070312 8.59375 -2.371094 9.289062 -2.976562 C 9.988281 -3.578125 10.339844 -4.464844 10.339844 -5.636719 Z M 10.339844 -6.886719 "/></g></g></g><g fill="#000000" fill-opacity="1"><g transform="translate(168.302003, 200.95819)"><g><path d="M 11.875 -4.113281 C 11.875 -3.167969 11.644531 -2.371094 11.183594 -1.71875 C 10.726562 -1.066406 10.054688 -0.574219 9.171875 -0.242188 C 8.292969 0.09375 7.214844 0.261719 5.9375 0.261719 C 4.929688 0.261719 4.066406 0.1875 3.339844 0.046875 C 2.613281 -0.0976562 1.929688 -0.316406 1.289062 -0.613281 L 1.289062 -3.253906 C 1.976562 -2.933594 2.746094 -2.65625 3.601562 -2.421875 C 4.457031 -2.1875 5.265625 -2.070312 6.027344 -2.070312 C 7.035156 -2.070312 7.761719 -2.230469 8.203125 -2.546875 C 8.644531 -2.863281 8.867188 -3.285156 8.867188 -3.816406 C 8.867188 -4.128906 8.777344 -4.40625 8.601562 -4.65625 C 8.421875 -4.902344 8.09375 -5.160156 7.609375 -5.421875 C 7.128906 -5.6875 6.425781 -6.007812 5.496094 -6.378906 C 4.582031 -6.746094 3.816406 -7.109375 3.191406 -7.472656 C 2.566406 -7.839844 2.09375 -8.28125 1.769531 -8.796875 C 1.449219 -9.3125 1.289062 -9.972656 1.289062 -10.78125 C 1.289062 -12.058594 1.792969 -13.027344 2.804688 -13.691406 C 3.816406 -14.355469 5.15625 -14.6875 6.824219 -14.6875 C 7.707031 -14.6875 8.542969 -14.597656 9.328125 -14.421875 C 10.117188 -14.242188 10.886719 -13.984375 11.640625 -13.648438 L 10.675781 -11.339844 C 10.027344 -11.628906 9.375 -11.863281 8.71875 -12.050781 C 8.0625 -12.238281 7.394531 -12.332031 6.71875 -12.332031 C 5.929688 -12.332031 5.328125 -12.210938 4.914062 -11.964844 C 4.503906 -11.722656 4.296875 -11.375 4.296875 -10.925781 C 4.296875 -10.585938 4.398438 -10.300781 4.597656 -10.066406 C 4.796875 -9.832031 5.140625 -9.597656 5.632812 -9.363281 C 6.121094 -9.128906 6.804688 -8.835938 7.683594 -8.488281 C 8.542969 -8.160156 9.285156 -7.816406 9.914062 -7.453125 C 10.546875 -7.09375 11.027344 -6.652344 11.367188 -6.132812 C 11.707031 -5.613281 11.875 -4.941406 11.875 -4.113281 Z M 11.875 -4.113281 "/></g></g></g><g fill="#000000" fill-opacity="1"><g transform="translate(54.198837, 332.322591)"><g><path d="M 13.492188 -5.183594 C 13.492188 -4.054688 13.214844 -3.082031 12.664062 -2.265625 C 12.113281 -1.449219 11.320312 -0.824219 10.292969 -0.390625 C 9.265625 0.0429688 8.039062 0.261719 6.613281 0.261719 C 5.921875 0.261719 5.257812 0.222656 4.621094 0.144531 C 3.988281 0.0664062 3.390625 -0.0507812 2.832031 -0.203125 C 2.273438 -0.355469 1.761719 -0.539062 1.300781 -0.753906 L 1.300781 -3.699219 C 2.074219 -3.359375 2.9375 -3.054688 3.894531 -2.78125 C 4.847656 -2.507812 5.820312 -2.371094 6.808594 -2.371094 C 7.617188 -2.371094 8.289062 -2.476562 8.820312 -2.6875 C 9.355469 -2.902344 9.753906 -3.207031 10.011719 -3.601562 C 10.273438 -3.996094 10.402344 -4.457031 10.402344 -4.988281 C 10.402344 -5.550781 10.253906 -6.027344 9.949219 -6.417969 C 9.644531 -6.808594 9.1875 -7.167969 8.574219 -7.492188 C 7.960938 -7.820312 7.195312 -8.167969 6.277344 -8.542969 C 5.652344 -8.792969 5.054688 -9.082031 4.484375 -9.402344 C 3.917969 -9.722656 3.410156 -10.101562 2.96875 -10.535156 C 2.527344 -10.96875 2.175781 -11.484375 1.921875 -12.078125 C 1.664062 -12.671875 1.535156 -13.375 1.535156 -14.179688 C 1.535156 -15.257812 1.792969 -16.175781 2.3125 -16.941406 C 2.828125 -17.703125 3.558594 -18.289062 4.5 -18.699219 C 5.441406 -19.105469 6.542969 -19.3125 7.800781 -19.3125 C 8.796875 -19.3125 9.738281 -19.207031 10.617188 -19 C 11.5 -18.789062 12.367188 -18.496094 13.21875 -18.113281 L 12.226562 -15.601562 C 11.445312 -15.921875 10.6875 -16.175781 9.953125 -16.367188 C 9.222656 -16.558594 8.472656 -16.65625 7.707031 -16.65625 C 7.050781 -16.65625 6.488281 -16.554688 6.027344 -16.355469 C 5.570312 -16.15625 5.21875 -15.875 4.980469 -15.515625 C 4.742188 -15.15625 4.621094 -14.726562 4.621094 -14.234375 C 4.621094 -13.675781 4.757812 -13.210938 5.03125 -12.832031 C 5.304688 -12.457031 5.730469 -12.109375 6.308594 -11.796875 C 6.886719 -11.484375 7.628906 -11.136719 8.542969 -10.753906 C 9.59375 -10.320312 10.484375 -9.867188 11.21875 -9.386719 C 11.953125 -8.910156 12.515625 -8.339844 12.90625 -7.675781 C 13.296875 -7.011719 13.492188 -6.179688 13.492188 -5.183594 Z M 13.492188 -5.183594 "/></g></g></g><g fill="#000000" fill-opacity="1"><g transform="translate(68.861084, 332.322591)"><g><path d="M 7.929688 -14.6875 C 9.214844 -14.6875 10.316406 -14.421875 11.238281 -13.894531 C 12.15625 -13.363281 12.867188 -12.613281 13.359375 -11.640625 C 13.855469 -10.667969 14.101562 -9.503906 14.101562 -8.152344 L 14.101562 -6.511719 L 4.480469 -6.511719 C 4.515625 -5.113281 4.890625 -4.035156 5.605469 -3.28125 C 6.320312 -2.527344 7.328125 -2.148438 8.621094 -2.148438 C 9.539062 -2.148438 10.367188 -2.238281 11.101562 -2.414062 C 11.835938 -2.59375 12.59375 -2.855469 13.375 -3.203125 L 13.375 -0.714844 C 12.652344 -0.378906 11.917969 -0.128906 11.171875 0.0273438 C 10.425781 0.183594 9.53125 0.261719 8.488281 0.261719 C 7.074219 0.261719 5.832031 -0.015625 4.757812 -0.566406 C 3.6875 -1.117188 2.847656 -1.941406 2.246094 -3.035156 C 1.644531 -4.128906 1.339844 -5.488281 1.339844 -7.109375 C 1.339844 -8.722656 1.613281 -10.097656 2.160156 -11.222656 C 2.707031 -12.351562 3.476562 -13.210938 4.464844 -13.804688 C 5.457031 -14.394531 6.609375 -14.6875 7.929688 -14.6875 Z M 7.929688 -12.382812 C 6.964844 -12.382812 6.1875 -12.070312 5.59375 -11.445312 C 5 -10.820312 4.648438 -9.90625 4.542969 -8.699219 L 11.105469 -8.699219 C 11.097656 -9.417969 10.980469 -10.058594 10.75 -10.613281 C 10.519531 -11.167969 10.171875 -11.601562 9.707031 -11.914062 C 9.242188 -12.226562 8.652344 -12.382812 7.929688 -12.382812 Z M 7.929688 -12.382812 "/></g></g></g><g fill="#000000" fill-opacity="1"><g transform="translate(84.226494, 332.322591)"><g><path d="M 7.996094 0.261719 C 6.632812 0.261719 5.453125 -0.00390625 4.453125 -0.535156 C 3.453125 -1.0625 2.6875 -1.875 2.148438 -2.96875 C 1.609375 -4.0625 1.339844 -5.453125 1.339844 -7.136719 C 1.339844 -8.890625 1.636719 -10.320312 2.226562 -11.433594 C 2.816406 -12.542969 3.636719 -13.363281 4.679688 -13.894531 C 5.726562 -14.421875 6.925781 -14.6875 8.28125 -14.6875 C 9.140625 -14.6875 9.921875 -14.605469 10.617188 -14.433594 C 11.316406 -14.265625 11.910156 -14.058594 12.398438 -13.816406 L 11.484375 -11.367188 C 10.957031 -11.585938 10.414062 -11.765625 9.855469 -11.914062 C 9.300781 -12.0625 8.769531 -12.136719 8.253906 -12.136719 C 7.414062 -12.136719 6.710938 -11.949219 6.152344 -11.574219 C 5.59375 -11.203125 5.175781 -10.648438 4.902344 -9.910156 C 4.628906 -9.171875 4.492188 -8.253906 4.492188 -7.160156 C 4.492188 -6.101562 4.632812 -5.210938 4.910156 -4.484375 C 5.1875 -3.761719 5.597656 -3.214844 6.144531 -2.84375 C 6.691406 -2.476562 7.367188 -2.292969 8.164062 -2.292969 C 8.953125 -2.292969 9.660156 -2.386719 10.285156 -2.578125 C 10.910156 -2.769531 11.503906 -3.015625 12.058594 -3.320312 L 12.058594 -0.664062 C 11.511719 -0.351562 10.925781 -0.121094 10.300781 0.03125 C 9.675781 0.183594 8.90625 0.261719 7.996094 0.261719 Z M 7.996094 0.261719 "/></g></g></g><g fill="#000000" fill-opacity="1"><g transform="translate(97.469395, 332.322591)"><g><path d="M 14.949219 -7.238281 C 14.949219 -6.042969 14.792969 -4.980469 14.480469 -4.050781 C 14.167969 -3.121094 13.710938 -2.335938 13.113281 -1.699219 C 12.515625 -1.0625 11.792969 -0.574219 10.949219 -0.242188 C 10.109375 0.09375 9.160156 0.261719 8.097656 0.261719 C 7.109375 0.261719 6.203125 0.09375 5.378906 -0.242188 C 4.554688 -0.574219 3.839844 -1.0625 3.234375 -1.699219 C 2.632812 -2.335938 2.164062 -3.121094 1.835938 -4.050781 C 1.507812 -4.980469 1.339844 -6.042969 1.339844 -7.238281 C 1.339844 -8.828125 1.617188 -10.175781 2.167969 -11.28125 C 2.71875 -12.390625 3.507812 -13.234375 4.53125 -13.816406 C 5.554688 -14.398438 6.777344 -14.6875 8.191406 -14.6875 C 9.519531 -14.6875 10.691406 -14.398438 11.707031 -13.816406 C 12.722656 -13.234375 13.515625 -12.386719 14.089844 -11.277344 C 14.664062 -10.164062 14.949219 -8.820312 14.949219 -7.238281 Z M 4.492188 -7.238281 C 4.492188 -6.191406 4.621094 -5.292969 4.875 -4.542969 C 5.132812 -3.796875 5.53125 -3.226562 6.066406 -2.832031 C 6.605469 -2.4375 7.300781 -2.238281 8.152344 -2.238281 C 9.003906 -2.238281 9.695312 -2.4375 10.234375 -2.832031 C 10.773438 -3.226562 11.167969 -3.796875 11.417969 -4.542969 C 11.671875 -5.292969 11.796875 -6.191406 11.796875 -7.238281 C 11.796875 -8.289062 11.671875 -9.183594 11.417969 -9.914062 C 11.167969 -10.648438 10.773438 -11.210938 10.234375 -11.59375 C 9.695312 -11.980469 8.996094 -12.175781 8.136719 -12.175781 C 6.871094 -12.175781 5.945312 -11.75 5.363281 -10.898438 C 4.785156 -10.046875 4.492188 -8.828125 4.492188 -7.238281 Z M 4.492188 -7.238281 "/></g></g></g><g fill="#000000" fill-opacity="1"><g transform="translate(113.746312, 332.322591)"><g><path d="M 9.699219 -14.6875 C 11.324219 -14.6875 12.589844 -14.269531 13.496094 -13.433594 C 14.402344 -12.59375 14.859375 -11.25 14.859375 -9.402344 L 14.859375 0 L 11.796875 0 L 11.796875 -8.828125 C 11.796875 -9.949219 11.566406 -10.789062 11.105469 -11.347656 C 10.648438 -11.90625 9.933594 -12.1875 8.972656 -12.1875 C 7.574219 -12.1875 6.605469 -11.757812 6.0625 -10.898438 C 5.519531 -10.039062 5.246094 -8.792969 5.246094 -7.160156 L 5.246094 0 L 2.1875 0 L 2.1875 -14.414062 L 4.570312 -14.414062 L 5 -12.460938 L 5.167969 -12.460938 C 5.480469 -12.964844 5.871094 -13.378906 6.335938 -13.707031 C 6.800781 -14.03125 7.320312 -14.277344 7.898438 -14.441406 C 8.476562 -14.605469 9.074219 -14.6875 9.699219 -14.6875 Z M 9.699219 -14.6875 "/></g></g></g><g fill="#000000" fill-opacity="1"><g transform="translate(130.687328, 332.322591)"><g><path d="M 7.03125 0.261719 C 5.3125 0.261719 3.933594 -0.367188 2.898438 -1.621094 C 1.859375 -2.875 1.339844 -4.726562 1.339844 -7.175781 C 1.339844 -9.648438 1.867188 -11.519531 2.921875 -12.789062 C 3.976562 -14.054688 5.371094 -14.6875 7.097656 -14.6875 C 7.824219 -14.6875 8.464844 -14.589844 9.011719 -14.394531 C 9.558594 -14.199219 10.027344 -13.9375 10.421875 -13.609375 C 10.820312 -13.277344 11.15625 -12.910156 11.433594 -12.5 L 11.574219 -12.5 C 11.53125 -12.769531 11.484375 -13.160156 11.425781 -13.667969 C 11.371094 -14.175781 11.339844 -14.644531 11.339844 -15.078125 L 11.339844 -20.261719 L 14.414062 -20.261719 L 14.414062 0 L 12.019531 0 L 11.472656 -1.964844 L 11.339844 -1.964844 C 11.082031 -1.550781 10.753906 -1.175781 10.359375 -0.839844 C 9.964844 -0.503906 9.496094 -0.238281 8.953125 -0.0390625 C 8.410156 0.160156 7.769531 0.261719 7.03125 0.261719 Z M 7.890625 -2.226562 C 9.203125 -2.226562 10.125 -2.605469 10.664062 -3.359375 C 11.203125 -4.113281 11.480469 -5.246094 11.496094 -6.757812 L 11.496094 -7.160156 C 11.496094 -8.777344 11.238281 -10.015625 10.714844 -10.878906 C 10.195312 -11.742188 9.246094 -12.175781 7.863281 -12.175781 C 6.761719 -12.175781 5.921875 -11.730469 5.34375 -10.839844 C 4.769531 -9.949219 4.480469 -8.710938 4.480469 -7.121094 C 4.480469 -5.535156 4.769531 -4.320312 5.34375 -3.484375 C 5.921875 -2.644531 6.769531 -2.226562 7.890625 -2.226562 Z M 7.890625 -2.226562 "/></g></g></g><g fill="#000000" fill-opacity="1"><g transform="translate(147.289784, 332.322591)"><g><path d="M 7.839844 -14.6875 C 9.660156 -14.6875 11.039062 -14.285156 11.972656 -13.476562 C 12.90625 -12.671875 13.375 -11.410156 13.375 -9.699219 L 13.375 0 L 11.199219 0 L 10.613281 -2.042969 L 10.507812 -2.042969 C 10.101562 -1.523438 9.679688 -1.09375 9.246094 -0.753906 C 8.8125 -0.417969 8.308594 -0.164062 7.742188 0.0078125 C 7.171875 0.175781 6.480469 0.261719 5.664062 0.261719 C 4.804688 0.261719 4.035156 0.101562 3.359375 -0.214844 C 2.683594 -0.53125 2.148438 -1.015625 1.757812 -1.667969 C 1.367188 -2.316406 1.171875 -3.140625 1.171875 -4.140625 C 1.171875 -5.625 1.726562 -6.742188 2.832031 -7.488281 C 3.9375 -8.234375 5.613281 -8.644531 7.851562 -8.722656 L 10.351562 -8.816406 L 10.351562 -9.570312 C 10.351562 -10.570312 10.121094 -11.28125 9.65625 -11.707031 C 9.191406 -12.132812 8.539062 -12.34375 7.695312 -12.34375 C 6.976562 -12.34375 6.277344 -12.242188 5.597656 -12.03125 C 4.921875 -11.824219 4.261719 -11.566406 3.621094 -11.261719 L 2.628906 -13.425781 C 3.332031 -13.796875 4.132812 -14.101562 5.03125 -14.335938 C 5.929688 -14.570312 6.867188 -14.6875 7.839844 -14.6875 Z M 10.339844 -6.886719 L 8.476562 -6.824219 C 6.949219 -6.769531 5.878906 -6.511719 5.261719 -6.042969 C 4.644531 -5.574219 4.335938 -4.929688 4.335938 -4.113281 C 4.335938 -3.402344 4.550781 -2.882812 4.972656 -2.558594 C 5.398438 -2.234375 5.960938 -2.070312 6.652344 -2.070312 C 7.714844 -2.070312 8.59375 -2.371094 9.289062 -2.976562 C 9.988281 -3.578125 10.339844 -4.464844 10.339844 -5.636719 Z M 10.339844 -6.886719 "/></g></g></g><g fill="#000000" fill-opacity="1"><g transform="translate(162.759366, 332.322591)"><g><path d="M 9.492188 -14.6875 C 9.734375 -14.6875 10 -14.675781 10.285156 -14.648438 C 10.574219 -14.625 10.820312 -14.589844 11.027344 -14.546875 L 10.742188 -11.679688 C 10.558594 -11.730469 10.335938 -11.769531 10.070312 -11.796875 C 9.808594 -11.824219 9.570312 -11.835938 9.363281 -11.835938 C 8.816406 -11.835938 8.292969 -11.746094 7.800781 -11.570312 C 7.304688 -11.390625 6.867188 -11.121094 6.484375 -10.761719 C 6.101562 -10.402344 5.804688 -9.953125 5.585938 -9.414062 C 5.371094 -8.875 5.261719 -8.25 5.261719 -7.539062 L 5.261719 0 L 2.1875 0 L 2.1875 -14.414062 L 4.582031 -14.414062 L 5 -11.875 L 5.144531 -11.875 C 5.429688 -12.386719 5.785156 -12.855469 6.210938 -13.28125 C 6.636719 -13.707031 7.125 -14.046875 7.675781 -14.304688 C 8.226562 -14.558594 8.832031 -14.6875 9.492188 -14.6875 Z M 9.492188 -14.6875 "/></g></g></g><g fill="#000000" fill-opacity="1"><g transform="translate(174.270402, 332.322591)"><g><path d="M 0.0117188 -14.414062 L 3.347656 -14.414062 L 6.300781 -6.183594 C 6.433594 -5.8125 6.550781 -5.445312 6.660156 -5.085938 C 6.769531 -4.726562 6.863281 -4.371094 6.945312 -4.023438 C 7.03125 -3.675781 7.097656 -3.328125 7.148438 -2.980469 L 7.226562 -2.980469 C 7.3125 -3.433594 7.4375 -3.9375 7.597656 -4.5 C 7.757812 -5.058594 7.9375 -5.621094 8.136719 -6.183594 L 10.976562 -14.414062 L 14.273438 -14.414062 L 8.085938 1.980469 C 7.730469 2.917969 7.292969 3.71875 6.777344 4.382812 C 6.261719 5.046875 5.652344 5.550781 4.949219 5.890625 C 4.246094 6.234375 3.441406 6.40625 2.539062 6.40625 C 2.105469 6.40625 1.726562 6.382812 1.40625 6.335938 C 1.085938 6.289062 0.8125 6.238281 0.585938 6.183594 L 0.585938 3.738281 C 0.769531 3.78125 1 3.820312 1.277344 3.855469 C 1.554688 3.890625 1.839844 3.90625 2.136719 3.90625 C 2.683594 3.90625 3.15625 3.796875 3.554688 3.582031 C 3.953125 3.363281 4.292969 3.058594 4.570312 2.664062 C 4.847656 2.269531 5.078125 1.820312 5.261719 1.316406 L 5.769531 -0.0390625 Z M 0.0117188 -14.414062 "/></g></g></g><g fill="#000000" fill-opacity="1"><g transform="translate(59.963036, 369.546816)"><g><path d="M 14.296875 0 L 12.4375 -5.285156 L 5.15625 -5.285156 L 3.292969 0 L 0 0 L 7.082031 -19.117188 L 10.546875 -19.117188 L 17.617188 0 Z M 11.628906 -7.96875 L 9.816406 -13.179688 C 9.75 -13.402344 9.648438 -13.722656 9.519531 -14.136719 C 9.386719 -14.546875 9.257812 -14.96875 9.128906 -15.398438 C 8.996094 -15.828125 8.890625 -16.191406 8.800781 -16.484375 C 8.714844 -16.128906 8.609375 -15.730469 8.484375 -15.292969 C 8.359375 -14.855469 8.234375 -14.445312 8.117188 -14.0625 C 8 -13.679688 7.914062 -13.386719 7.851562 -13.179688 L 6.027344 -7.96875 Z M 11.628906 -7.96875 "/></g></g></g><g fill="#000000" fill-opacity="1"><g transform="translate(77.594193, 369.546816)"><g><path d="M 9.699219 -14.6875 C 11.324219 -14.6875 12.589844 -14.269531 13.496094 -13.433594 C 14.402344 -12.59375 14.859375 -11.25 14.859375 -9.402344 L 14.859375 0 L 11.796875 0 L 11.796875 -8.828125 C 11.796875 -9.949219 11.566406 -10.789062 11.105469 -11.347656 C 10.648438 -11.90625 9.933594 -12.1875 8.972656 -12.1875 C 7.574219 -12.1875 6.605469 -11.757812 6.0625 -10.898438 C 5.519531 -10.039062 5.246094 -8.792969 5.246094 -7.160156 L 5.246094 0 L 2.1875 0 L 2.1875 -14.414062 L 4.570312 -14.414062 L 5 -12.460938 L 5.167969 -12.460938 C 5.480469 -12.964844 5.871094 -13.378906 6.335938 -13.707031 C 6.800781 -14.03125 7.320312 -14.277344 7.898438 -14.441406 C 8.476562 -14.605469 9.074219 -14.6875 9.699219 -14.6875 Z M 9.699219 -14.6875 "/></g></g></g><g fill="#000000" fill-opacity="1"><g transform="translate(94.535209, 369.546816)"><g><path d="M 7.550781 -2.214844 C 7.953125 -2.214844 8.347656 -2.25 8.738281 -2.324219 C 9.128906 -2.398438 9.484375 -2.488281 9.804688 -2.589844 L 9.804688 -0.273438 C 9.464844 -0.125 9.027344 0 8.488281 0.105469 C 7.953125 0.207031 7.390625 0.261719 6.808594 0.261719 C 5.996094 0.261719 5.261719 0.125 4.609375 -0.148438 C 3.957031 -0.421875 3.441406 -0.894531 3.058594 -1.5625 C 2.679688 -2.230469 2.488281 -3.15625 2.488281 -4.335938 L 2.488281 -12.082031 L 0.519531 -12.082031 L 0.519531 -13.453125 L 2.628906 -14.53125 L 3.632812 -17.617188 L 5.558594 -17.617188 L 5.558594 -14.414062 L 9.6875 -14.414062 L 9.6875 -12.082031 L 5.558594 -12.082031 L 5.558594 -4.375 C 5.558594 -3.644531 5.742188 -3.101562 6.105469 -2.746094 C 6.472656 -2.390625 6.953125 -2.214844 7.550781 -2.214844 Z M 7.550781 -2.214844 "/></g></g></g><g fill="#000000" fill-opacity="1"><g transform="translate(105.082652, 369.546816)"><g><path d="M 7.929688 -14.6875 C 9.214844 -14.6875 10.316406 -14.421875 11.238281 -13.894531 C 12.15625 -13.363281 12.867188 -12.613281 13.359375 -11.640625 C 13.855469 -10.667969 14.101562 -9.503906 14.101562 -8.152344 L 14.101562 -6.511719 L 4.480469 -6.511719 C 4.515625 -5.113281 4.890625 -4.035156 5.605469 -3.28125 C 6.320312 -2.527344 7.328125 -2.148438 8.621094 -2.148438 C 9.539062 -2.148438 10.367188 -2.238281 11.101562 -2.414062 C 11.835938 -2.59375 12.59375 -2.855469 13.375 -3.203125 L 13.375 -0.714844 C 12.652344 -0.378906 11.917969 -0.128906 11.171875 0.0273438 C 10.425781 0.183594 9.53125 0.261719 8.488281 0.261719 C 7.074219 0.261719 5.832031 -0.015625 4.757812 -0.566406 C 3.6875 -1.117188 2.847656 -1.941406 2.246094 -3.035156 C 1.644531 -4.128906 1.339844 -5.488281 1.339844 -7.109375 C 1.339844 -8.722656 1.613281 -10.097656 2.160156 -11.222656 C 2.707031 -12.351562 3.476562 -13.210938 4.464844 -13.804688 C 5.457031 -14.394531 6.609375 -14.6875 7.929688 -14.6875 Z M 7.929688 -12.382812 C 6.964844 -12.382812 6.1875 -12.070312 5.59375 -11.445312 C 5 -10.820312 4.648438 -9.90625 4.542969 -8.699219 L 11.105469 -8.699219 C 11.097656 -9.417969 10.980469 -10.058594 10.75 -10.613281 C 10.519531 -11.167969 10.171875 -11.601562 9.707031 -11.914062 C 9.242188 -12.226562 8.652344 -12.382812 7.929688 -12.382812 Z M 7.929688 -12.382812 "/></g></g></g><g fill="#000000" fill-opacity="1"><g transform="translate(120.448062, 369.546816)"><g><path d="M 9.699219 -14.6875 C 11.324219 -14.6875 12.589844 -14.269531 13.496094 -13.433594 C 14.402344 -12.59375 14.859375 -11.25 14.859375 -9.402344 L 14.859375 0 L 11.796875 0 L 11.796875 -8.828125 C 11.796875 -9.949219 11.566406 -10.789062 11.105469 -11.347656 C 10.648438 -11.90625 9.933594 -12.1875 8.972656 -12.1875 C 7.574219 -12.1875 6.605469 -11.757812 6.0625 -10.898438 C 5.519531 -10.039062 5.246094 -8.792969 5.246094 -7.160156 L 5.246094 0 L 2.1875 0 L 2.1875 -14.414062 L 4.570312 -14.414062 L 5 -12.460938 L 5.167969 -12.460938 C 5.480469 -12.964844 5.871094 -13.378906 6.335938 -13.707031 C 6.800781 -14.03125 7.320312 -14.277344 7.898438 -14.441406 C 8.476562 -14.605469 9.074219 -14.6875 9.699219 -14.6875 Z M 9.699219 -14.6875 "/></g></g></g><g fill="#000000" fill-opacity="1"><g transform="translate(137.389078, 369.546816)"><g><path d="M 9.699219 -14.6875 C 11.324219 -14.6875 12.589844 -14.269531 13.496094 -13.433594 C 14.402344 -12.59375 14.859375 -11.25 14.859375 -9.402344 L 14.859375 0 L 11.796875 0 L 11.796875 -8.828125 C 11.796875 -9.949219 11.566406 -10.789062 11.105469 -11.347656 C 10.648438 -11.90625 9.933594 -12.1875 8.972656 -12.1875 C 7.574219 -12.1875 6.605469 -11.757812 6.0625 -10.898438 C 5.519531 -10.039062 5.246094 -8.792969 5.246094 -7.160156 L 5.246094 0 L 2.1875 0 L 2.1875 -14.414062 L 4.570312 -14.414062 L 5 -12.460938 L 5.167969 -12.460938 C 5.480469 -12.964844 5.871094 -13.378906 6.335938 -13.707031 C 6.800781 -14.03125 7.320312 -14.277344 7.898438 -14.441406 C 8.476562 -14.605469 9.074219 -14.6875 9.699219 -14.6875 Z M 9.699219 -14.6875 "/></g></g></g><g fill="#000000" fill-opacity="1"><g transform="translate(154.330093, 369.546816)"><g><path d="M 7.839844 -14.6875 C 9.660156 -14.6875 11.039062 -14.285156 11.972656 -13.476562 C 12.90625 -12.671875 13.375 -11.410156 13.375 -9.699219 L 13.375 0 L 11.199219 0 L 10.613281 -2.042969 L 10.507812 -2.042969 C 10.101562 -1.523438 9.679688 -1.09375 9.246094 -0.753906 C 8.8125 -0.417969 8.308594 -0.164062 7.742188 0.0078125 C 7.171875 0.175781 6.480469 0.261719 5.664062 0.261719 C 4.804688 0.261719 4.035156 0.101562 3.359375 -0.214844 C 2.683594 -0.53125 2.148438 -1.015625 1.757812 -1.667969 C 1.367188 -2.316406 1.171875 -3.140625 1.171875 -4.140625 C 1.171875 -5.625 1.726562 -6.742188 2.832031 -7.488281 C 3.9375 -8.234375 5.613281 -8.644531 7.851562 -8.722656 L 10.351562 -8.816406 L 10.351562 -9.570312 C 10.351562 -10.570312 10.121094 -11.28125 9.65625 -11.707031 C 9.191406 -12.132812 8.539062 -12.34375 7.695312 -12.34375 C 6.976562 -12.34375 6.277344 -12.242188 5.597656 -12.03125 C 4.921875 -11.824219 4.261719 -11.566406 3.621094 -11.261719 L 2.628906 -13.425781 C 3.332031 -13.796875 4.132812 -14.101562 5.03125 -14.335938 C 5.929688 -14.570312 6.867188 -14.6875 7.839844 -14.6875 Z M 10.339844 -6.886719 L 8.476562 -6.824219 C 6.949219 -6.769531 5.878906 -6.511719 5.261719 -6.042969 C 4.644531 -5.574219 4.335938 -4.929688 4.335938 -4.113281 C 4.335938 -3.402344 4.550781 -2.882812 4.972656 -2.558594 C 5.398438 -2.234375 5.960938 -2.070312 6.652344 -2.070312 C 7.714844 -2.070312 8.59375 -2.371094 9.289062 -2.976562 C 9.988281 -3.578125 10.339844 -4.464844 10.339844 -5.636719 Z M 10.339844 -6.886719 "/></g></g></g><g fill="#000000" fill-opacity="1"><g transform="translate(169.799676, 369.546816)"><g><path d="M 11.875 -4.113281 C 11.875 -3.167969 11.644531 -2.371094 11.183594 -1.71875 C 10.726562 -1.066406 10.054688 -0.574219 9.171875 -0.242188 C 8.292969 0.09375 7.214844 0.261719 5.9375 0.261719 C 4.929688 0.261719 4.066406 0.1875 3.339844 0.046875 C 2.613281 -0.0976562 1.929688 -0.316406 1.289062 -0.613281 L 1.289062 -3.253906 C 1.976562 -2.933594 2.746094 -2.65625 3.601562 -2.421875 C 4.457031 -2.1875 5.265625 -2.070312 6.027344 -2.070312 C 7.035156 -2.070312 7.761719 -2.230469 8.203125 -2.546875 C 8.644531 -2.863281 8.867188 -3.285156 8.867188 -3.816406 C 8.867188 -4.128906 8.777344 -4.40625 8.601562 -4.65625 C 8.421875 -4.902344 8.09375 -5.160156 7.609375 -5.421875 C 7.128906 -5.6875 6.425781 -6.007812 5.496094 -6.378906 C 4.582031 -6.746094 3.816406 -7.109375 3.191406 -7.472656 C 2.566406 -7.839844 2.09375 -8.28125 1.769531 -8.796875 C 1.449219 -9.3125 1.289062 -9.972656 1.289062 -10.78125 C 1.289062 -12.058594 1.792969 -13.027344 2.804688 -13.691406 C 3.816406 -14.355469 5.15625 -14.6875 6.824219 -14.6875 C 7.707031 -14.6875 8.542969 -14.597656 9.328125 -14.421875 C 10.117188 -14.242188 10.886719 -13.984375 11.640625 -13.648438 L 10.675781 -11.339844 C 10.027344 -11.628906 9.375 -11.863281 8.71875 -12.050781 C 8.0625 -12.238281 7.394531 -12.332031 6.71875 -12.332031 C 5.929688 -12.332031 5.328125 -12.210938 4.914062 -11.964844 C 4.503906 -11.722656 4.296875 -11.375 4.296875 -10.925781 C 4.296875 -10.585938 4.398438 -10.300781 4.597656 -10.066406 C 4.796875 -9.832031 5.140625 -9.597656 5.632812 -9.363281 C 6.121094 -9.128906 6.804688 -8.835938 7.683594 -8.488281 C 8.542969 -8.160156 9.285156 -7.816406 9.914062 -7.453125 C 10.546875 -7.09375 11.027344 -6.652344 11.367188 -6.132812 C 11.707031 -5.613281 11.875 -4.941406 11.875 -4.113281 Z M 11.875 -4.113281 "/></g></g></g></svg>