<svg xmlns="http://www.w3.org/2000/svg" xmlns:xlink="http://www.w3.org/1999/xlink" width="297" zoomAndPan="magnify" viewBox="0 0 222.75 147.750002" height="197" preserveAspectRatio="xMidYMid meet" version="1.0"><defs><clipPath id="8774954d95"><path d="M 15 61 L 207 61 L 207 103 L 15 103 Z M 15 61 " clip-rule="nonzero"/></clipPath><clipPath id="853da6bbe8"><path d="M 3.6875 101.707031 L 11 25.683594 L 218.9375 45.683594 L 211.625 121.703125 Z M 3.6875 101.707031 " clip-rule="nonzero"/></clipPath><clipPath id="df57b9a946"><path d="M 3.683594 101.734375 L 11.140625 24.222656 L 219.078125 44.222656 L 211.621094 121.734375 Z M 3.683594 101.734375 " clip-rule="nonzero"/></clipPath><clipPath id="e3e15de8e9"><path d="M -8.871094 232.296875 L 22.8125 -97.125 L 230.75 -77.125 L 199.066406 252.292969 Z M -8.871094 232.296875 " clip-rule="nonzero"/></clipPath><clipPath id="89d0ac0cab"><path d="M 8.046875 89.128906 L 12.132812 46.640625 L 213.832031 66.039062 L 209.742188 108.527344 Z M 8.046875 89.128906 " clip-rule="nonzero"/></clipPath></defs><g clip-path="url(#8774954d95)"><g clip-path="url(#853da6bbe8)"><g clip-path="url(#df57b9a946)"><g clip-path="url(#e3e15de8e9)"><g clip-path="url(#89d0ac0cab)"><path stroke-linecap="square" transform="matrix(0.0277658, -0.288697, 0.288799, 0.0277756, -8.870383, 232.295413)" fill="none" stroke-linejoin="round" d="M 637.423841 677.455516 L 632.666527 676.668518 L 631.703566 676.504108 L 626.699776 675.686703 L 625.502455 675.477196 L 620.238781 674.630673 L 619.289226 674.464974 L 608.056999 672.758543 L 607.107444 672.592844 L 603.026396 671.943716 L 602.090248 671.776728 L 594.919215 670.653705 L 593.954964 670.475893 L 586.550862 669.321174 L 585.601307 669.155476 L 574.590033 667.49543 L 573.652595 667.315041 L 562.641321 665.654996 L 561.705173 665.488008 L 553.560351 664.228668 L 552.622913 664.048278 L 544.965374 662.931451 L 533.9541 661.271406 L 532.767607 661.033806 L 531.124512 660.691321 L 529.278764 660.07075 L 527.128004 658.951996 L 525.417597 657.628595 L 524.10294 656.199516 L 522.746246 654.192868 L 522.067635 652.905526 L 521.351119 651.364837 L 520.132063 647.694801 L 519.214913 643.92811 L 518.414554 640.109613 L 518.079093 638.451134 L 516.564719 629.602038 L 516.205769 626.714964 L 515.845793 624.098506 L 515.361724 617.801421 L 515.670029 615.661746 L 516.264006 613.819228 L 516.765441 612.702476 L 517.755432 611.038297 L 519.379388 608.6504 L 530.666153 593.48485 L 531.789963 592.227107 L 532.797758 591.16988 L 535.97455 588.186336 L 538.219606 586.347389 L 540.134919 584.87829 L 541.294831 583.995799 L 544.591522 581.555288 L 545.388431 580.978215 L 547.90033 579.100087 L 549.247158 578.050841 L 551.162471 576.581743 L 552.509299 575.532497 L 554.235117 574.20335 L 555.568539 573.155393 L 557.090166 571.954084 L 558.029903 571.173917 L 562.897715 567.202717 L 563.996265 566.244971 L 564.922595 565.466093 L 566.544251 564.038753 L 570.835579 560.122978 L 576.074628 555.088123 L 577.659156 553.556145 L 583.602805 547.547316 L 586.335113 544.444196 L 587.272006 543.353207 L 590.791669 539.011166 L 594.05325 534.518101 L 596.490084 530.875303 L 597.839212 528.865501 L 600.780323 524.416773 L 602.129451 522.406971 L 604.81172 518.361852 L 606.5932 515.782975 L 607.982547 513.769306 L 611.719542 509.01412 L 615.147176 505.262538 L 619.015427 501.590327 L 619.752262 500.9514 L 621.373918 499.52406 L 624.580102 496.564742 L 626.049641 494.962665 L 628.262182 491.80131 L 629.383382 489.110077 L 629.98688 486.522721 L 630.158556 485.072475 L 630.245908 482.886415 L 629.727073 478.337507 L 628.631473 472.856664 L 628.0276 470.236603 L 627.641091 468.610083 L 624.504717 457.387596 L 624.035454 456.026023 L 623.502762 454.427083 L 619.536219 443.717238 L 618.414894 440.781728 L 616.741288 436.465575 L 615.621252 433.543467 L 613.223641 427.186889 L 612.854423 426.302629 L 611.180817 421.986477 L 603.95373 404.529613 L 602.448491 400.697729 L 601.746407 398.885136 L 600.195774 394.300169 L 599.681864 390.927537 L 599.548511 388.275765 L 599.443278 386.33816 L 599.162468 384.403909 L 598.838099 383.001354 L 596.936565 378.003771 L 594.145549 372.902343 L 589.524739 365.799173 L 585.43224 360.390045 L 583.440526 357.971044 L 581.918572 356.074965 L 581.139419 355.148962 L 579.462768 353.051342 L 578.262324 351.543653 L 572.875007 344.067824 L 571.674035 341.992101 L 570.562512 339.299114 L 569.708791 335.76979 L 569.48647 332.193288 L 569.593148 329.504913 L 569.982902 326.383546 L 571.589193 318.045973 L 571.871989 316.625621 L 573.732974 306.856872 L 574.087698 305.199666 L 574.871385 301.391185 L 577.81975 286.892051 L 579.355123 277.817374 L 579.614711 276.155788 L 580.173842 272.544733 L 580.650668 266.249946 L 580.535336 262.379115 L 580.198306 259.719873 L 579.379896 255.713749 L 578.585735 252.381587 L 577.894199 249.553541 L 577.126091 246.773434 L 576.338393 244.211624 L 573.927376 237.856335 L 572.042091 233.168284 L 571.44597 231.331977 L 570.223046 227.621736 L 568.302932 221.868491 L 567.743427 220.272129 L 564.895878 212.051664 L 564.298468 210.201956 L 562.402852 204.703347 L 561.866292 203.064201 L 561.23253 201.258565 L 560.683852 199.634111 L 560.137754 198.03646 L 557.426602 190.249235 L 556.89391 188.650295 L 554.997004 183.138284 L 554.464312 181.539345 L 552.745313 176.470109 L 552.212621 174.871169 L 550.493621 169.801933 L 549.960929 168.202993 L 548.07872 162.703096 L 547.532621 161.105445 L 546.39994 157.629993 L 545.726983 155.557608 L 544.685834 152.330347 L 543.948159 150.007193 L 543.22518 147.696152 L 542.425365 145.149033 L 540.888139 140.562777 L 540.278612 138.727759 L 536.720481 129.168923 L 534.934977 124.674166 L 531.872923 116.474324 L 530.088708 111.99297 L 527.026653 103.793128 L 525.906618 100.87102 L 524.323254 96.789657 L 523.954035 95.905397 L 522.357265 91.825322 L 520.67283 87.537262 L 519.166302 83.691977 L 518.693435 82.574217 L 517.099243 78.520946 L 515.366076 74.007632 L 514.663991 72.195039 L 513.503736 69.276798 L 512.198322 66.115521 L 510.326444 61.426181 L 509.013806 58.049186 L 507.979384 55.876295 L 506.102612 51.417365 L 504.703072 47.277751 L 503.848061 43.735025 L 503.626052 42.552569 " stroke="#000000" stroke-width="10" stroke-opacity="1" stroke-miterlimit="4"/></g></g></g></g></g></svg>