<svg xmlns="http://www.w3.org/2000/svg" xmlns:xlink="http://www.w3.org/1999/xlink" width="297" zoomAndPan="magnify" viewBox="0 0 222.75 147.750002" height="197" preserveAspectRatio="xMidYMid meet" version="1.0"><defs><clipPath id="945e1d4587"><path d="M 4 26 L 218 26 L 218 131 L 4 131 Z M 4 26 " clip-rule="nonzero"/></clipPath><clipPath id="60facfe8da"><path d="M 2.589844 137.316406 L 4.125 20.523438 L 219.742188 23.359375 L 218.207031 140.148438 Z M 2.589844 137.316406 " clip-rule="nonzero"/></clipPath><clipPath id="d588621d6f"><path d="M 2.152344 137.632812 L 3.699219 20.09375 L 220.8125 22.949219 L 219.265625 140.488281 Z M 2.152344 137.632812 " clip-rule="nonzero"/></clipPath><clipPath id="4f98ba75d2"><path d="M -9.550781 231.125 L -5.496094 -77.324219 L 231.832031 -74.203125 L 227.777344 234.246094 Z M -9.550781 231.125 " clip-rule="nonzero"/></clipPath><clipPath id="d095b0f516"><path d="M -4.679688 132.121094 L -3.230469 21.773438 L 226.960938 24.800781 L 225.511719 135.148438 Z M -4.679688 132.121094 " clip-rule="nonzero"/></clipPath></defs><g clip-path="url(#945e1d4587)"><g clip-path="url(#60facfe8da)"><g clip-path="url(#d588621d6f)"><g clip-path="url(#4f98ba75d2)"><g clip-path="url(#d095b0f516)"><path stroke-linecap="square" transform="matrix(0.00432758, -0.32916, 0.329599, 0.00433335, -9.541932, 231.126805)" fill="none" stroke-linejoin="round" d="M 615.964092 188.170772 L 615.460614 157.138209 L 614.980335 146.798124 L 614.51906 140.605827 L 613.929285 135.470004 L 613.126248 130.360684 L 612.098238 125.289873 L 610.798107 120.281892 L 609.571186 116.327737 L 608.178931 112.43501 L 606.193577 107.661205 L 603.995897 102.985 L 601.58589 98.406396 L 598.975733 93.948935 L 596.153718 89.624622 L 593.131708 85.433302 L 589.933436 81.374663 L 586.547347 77.472561 L 582.997172 73.726682 L 579.283067 70.148878 L 575.381458 66.751309 L 571.328252 63.557206 L 567.135159 60.554564 L 562.790625 57.767238 L 558.318382 55.194917 L 553.730449 52.849294 L 549.026984 50.742219 L 544.219851 48.873536 L 539.332625 47.231083 L 534.365774 45.85041 L 529.331163 44.73136 L 524.252368 43.861772 L 519.141252 43.241492 L 513.997348 42.834969 L 507.823038 42.584194 L 501.639826 42.558715 L 481.01954 42.947971 L 416.0951 43.978193 L 410.961649 44.365586 L 406.862036 44.85792 L 401.782441 45.730519 L 397.759324 46.624801 L 393.786319 47.719901 L 388.88251 49.324988 L 384.076899 51.177667 L 379.357621 53.278094 L 374.747938 55.590411 L 370.247539 58.090917 L 365.856735 60.803311 L 361.587236 63.71559 L 357.462616 66.81559 L 353.482719 70.091463 L 349.647702 73.555059 L 345.993159 77.20591 L 342.51878 81.020316 L 339.236585 85.009973 L 336.146262 89.15118 L 333.271542 93.443626 L 330.61227 97.875462 L 328.156266 102.423144 L 325.939129 107.086205 L 323.948991 111.864802 L 322.17352 116.72354 L 320.624426 121.650415 L 319.301863 126.657277 L 318.21723 131.708421 L 317.370683 136.815697 L 316.78564 141.955094 L 316.426348 147.115229 L 316.211303 153.316406 L 316.177962 161.601068 L 316.479338 185.394996 L 317.060223 234.026073 L 318.110322 335.425881 L 319.21502 440.97301 L 320.192204 513.396769 L 321.020554 560.993513 L 321.390476 569.261029 L 322.035005 578.556022 L 322.685813 584.722127 L 323.512581 589.831136 L 324.576031 594.88963 L 325.899892 599.8973 L 327.150388 603.839294 L 328.958698 608.686532 L 331.003066 613.435859 L 333.283179 618.063575 L 335.799193 622.58153 L 338.527223 626.978186 L 341.45509 631.23 L 344.571086 635.348976 L 347.874898 639.311417 L 351.366526 643.117322 L 355.02224 646.767002 L 358.841885 650.248608 L 362.801572 653.550603 L 366.913168 656.67283 L 371.152787 659.603752 L 375.532136 662.331362 L 380.039196 664.843969 L 384.650391 667.153732 L 389.36541 669.236952 L 394.172387 671.093786 L 399.059457 672.724389 L 404.026307 674.105062 L 409.061074 675.235962 L 414.140026 676.117399 L 419.251141 676.73768 L 424.394733 677.120503 L 430.568887 677.359429 L 438.806039 677.452753 L 454.26696 677.285307 L 516.094718 676.307596 L 522.273094 675.965741 L 527.393277 675.471858 L 532.498474 674.741142 L 536.54657 673.941344 L 541.538272 672.702502 L 545.486142 671.501068 L 550.353107 669.801653 L 555.146073 667.889883 L 559.829131 665.742524 L 563.482875 663.83386 L 567.946274 661.227176 L 572.264638 658.42092 L 576.461698 655.414781 L 580.513878 652.220919 L 584.445378 648.874572 L 588.23231 645.364201 L 591.838924 641.678425 L 595.289104 637.828782 L 598.559278 633.827432 L 601.625714 629.674687 L 604.476548 625.370703 L 607.111778 620.91548 L 609.520008 616.344721 L 611.701238 611.658428 L 613.655624 606.86845 L 615.395343 601.99833 L 616.932416 597.05976 L 618.219383 592.053366 L 619.268264 586.99084 L 619.902787 582.90558 L 620.463943 577.754646 L 620.763908 572.595289 L 620.907606 566.383197 L 620.869912 558.11132 L 619.990689 508.453076 L 619.248556 427.742007 L 616.730288 237.356439 L 615.971424 188.727698 " stroke="#000000" stroke-width="10" stroke-opacity="1" stroke-miterlimit="4"/></g></g></g></g></g></svg>