<svg xmlns="http://www.w3.org/2000/svg" xmlns:xlink="http://www.w3.org/1999/xlink" width="297" zoomAndPan="magnify" viewBox="0 0 222.75 147.750002" height="197" preserveAspectRatio="xMidYMid meet" version="1.0"><defs><clipPath id="c8ed33d273"><path d="M 22 30 L 200 30 L 200 129 L 22 129 Z M 22 30 " clip-rule="nonzero"/></clipPath><clipPath id="d2b0fd2210"><path d="M 11.707031 133.808594 L 13.972656 20.773438 L 210.101562 24.707031 L 207.835938 137.742188 Z M 11.707031 133.808594 " clip-rule="nonzero"/></clipPath><clipPath id="3f133f582e"><path d="M 11.691406 134.519531 L 13.992188 19.984375 L 210.117188 23.917969 L 207.820312 138.453125 Z M 11.691406 134.519531 " clip-rule="nonzero"/></clipPath><clipPath id="ba8fcb7b59"><path d="M 10.28125 204.960938 L 15.398438 -50.304688 L 211.527344 -46.371094 L 206.410156 208.894531 Z M 10.28125 204.960938 " clip-rule="nonzero"/></clipPath><clipPath id="1882db04cf"><path d="M 14.765625 129.632812 L 16.863281 25.140625 L 207.042969 28.957031 L 204.945312 133.449219 Z M 14.765625 129.632812 " clip-rule="nonzero"/></clipPath></defs><g clip-path="url(#c8ed33d273)"><g clip-path="url(#d2b0fd2210)"><g clip-path="url(#3f133f582e)"><g clip-path="url(#ba8fcb7b59)"><g clip-path="url(#1882db04cf)"><path stroke-linecap="square" transform="matrix(0.00546277, -0.272336, 0.27231, 0.00546226, 10.312507, 204.96259)" fill="none" stroke-linejoin="round" d="M 296.290833 364.253675 L 297.066136 411.490057 L 298.114988 473.080146 L 298.210607 484.998798 L 298.531764 494.574715 L 299.396537 512.660567 L 300.426283 522.523511 L 302.048521 533.321329 L 303.67437 542.15383 L 305.910501 552.092987 L 308.569777 560.244894 L 313.289053 572.415068 L 315.686672 578.248358 L 318.856271 584.668646 L 322.448854 591.439069 L 325.71446 596.925015 L 330.257362 603.877202 L 334.879099 610.469186 L 339.688336 616.397546 L 344.911354 622.217191 L 350.694983 628.097314 L 357.991595 635.037293 L 364.934281 640.779406 L 371.617694 645.752097 L 378.641762 650.545817 L 387.727633 655.87197 L 394.758231 659.561005 L 404.108137 663.748617 L 413.116194 667.340604 L 422.716372 670.418642 L 432.821204 672.912763 L 443.539108 675.222446 L 455.288713 676.765501 L 467.795876 677.461357 L 477.056625 677.203855 L 486.055555 676.765121 L 492.408287 675.977817 L 500.974167 674.68708 L 509.899311 672.714928 L 527.126707 667.750291 L 534.498155 664.833858 L 542.474335 661.317154 L 548.978328 658.059502 L 556.526634 653.948898 L 563.131524 650.000668 L 569.215078 645.80469 L 574.869938 641.689036 L 580.188127 637.235859 L 586.448252 631.831371 L 591.835212 626.516124 L 596.80954 621.366947 L 602.209645 615.276815 L 606.837237 609.288248 L 611.821792 602.503554 L 615.383831 597.024088 L 619.492058 590.170905 L 623.087289 583.485806 L 626.943392 575.504437 L 630.20076 567.707217 L 632.956019 559.905726 L 635.782307 550.639634 L 638.260133 540.448118 L 640.500173 529.128129 L 642.127546 515.152289 L 643.064322 499.641059 L 642.638132 474.101431 L 642.64391 465.092749 L 641.783114 417.16953 L 641.438341 386.392399 L 640.833196 360.512084 L 640.83691 345.679435 L 640.493032 334.970731 L 638.831168 235.665985 L 638.314079 219.897023 L 637.360861 204.552811 L 636.424043 195.03228 L 634.535098 183.809466 L 632.652607 175.053838 L 629.737137 164.855757 L 627.16245 156.630429 L 623.561399 147.292447 L 620.139676 139.743975 L 615.929622 131.508419 L 611.906907 124.746625 L 606.423669 116.680059 L 600.510298 108.622121 L 593.641721 100.138656 L 585.891968 92.060178 L 578.174097 84.856097 L 568.825131 77.139633 L 560.518058 71.310133 L 553.050957 66.597025 L 544.14433 61.625898 L 532.821195 56.315937 L 521.590168 52.022613 L 511.054299 48.776863 L 502.302967 46.542487 L 489.692192 44.256431 L 478.896069 43.05287 L 468.013386 42.539598 L 456.172704 42.89189 L 446.491889 43.65989 L 437.409562 44.946642 L 418.375568 49.230279 L 406.151717 53.362953 L 396.6331 57.211841 L 386.518666 62.105511 L 377.954723 67.068491 L 367.15163 74.099013 L 357.884976 81.213472 L 348.981698 89.281747 L 342.539539 95.622302 L 336.281512 102.561646 L 330.713711 109.587559 L 324.802463 118.083535 L 318.09385 128.302545 L 313.295525 137.220886 L 308.657833 146.996695 L 305.401657 155.568513 L 301.804666 166.456688 L 299.48365 175.884781 L 297.597572 184.113527 L 296.229505 194.569677 L 295.369789 203.911076 L 294.679335 214.540116 L 294.260663 238.719587 L 296.290833 364.253675 " stroke="#000000" stroke-width="10" stroke-opacity="1" stroke-miterlimit="4"/></g></g></g></g></g></svg>