<svg xmlns="http://www.w3.org/2000/svg" xmlns:xlink="http://www.w3.org/1999/xlink" width="1056" zoomAndPan="magnify" viewBox="0 0 792 809.999993" height="1080" preserveAspectRatio="xMidYMid meet" version="1.0"><defs><clipPath id="26119f2eb4"><path d="M 74.132812 498.28125 L 89.246094 498.28125 L 89.246094 513.394531 L 74.132812 513.394531 Z M 74.132812 498.28125 " clip-rule="nonzero"/></clipPath><clipPath id="fe15b65202"><path d="M 0.230469 0 L 791.832031 0 L 791.832031 810 L 0.230469 810 Z M 0.230469 0 " clip-rule="nonzero"/></clipPath></defs><g clip-path="url(#26119f2eb4)"><path fill="#262626" d="M 74.132812 498.28125 L 89.246094 498.28125 L 89.246094 513.394531 L 74.132812 513.394531 Z M 74.132812 498.28125 " fill-opacity="1" fill-rule="nonzero"/></g><path fill="#ffffff" d="M 261.851562 785.90625 L 38.585938 456.855469 C 12.765625 419.054688 22.117188 367.53125 59.5625 341.195312 C 94.851562 316.359375 111.113281 322.417969 139.195312 355.191406 L 180.160156 350.773438 L 180.160156 168.691406 C 180.160156 128.765625 201.582031 83.007812 252.480469 80.332031 C 292.417969 80.332031 324.800781 112.703125 324.800781 152.628906 L 324.75 161.074219 L 334.539062 80.183594 C 336.195312 73.757812 338.273438 67.40625 341.304688 61.503906 C 355.136719 34.574219 377.3125 25.992188 398.617188 24.300781 C 400.359375 24.167969 402.109375 24.09375 403.863281 24.09375 L 409.023438 24.472656 C 431.082031 26.078125 450.863281 38.613281 461.734375 57.855469 C 471.703125 75.5 477.046875 95.371094 477.28125 115.632812 C 477.472656 132.636719 477.472656 157.984375 477.472656 157.984375 L 480.40625 148.261719 C 484.472656 134.800781 492.128906 122.4375 503.34375 113.941406 C 514.25 105.667969 527.601562 100.738281 541.761719 100.179688 L 546.835938 99.984375 C 572.132812 99 595.84375 112.324219 608.140625 134.460938 L 608.480469 135.070312 C 614.152344 145.277344 617.015625 156.597656 616.878906 168.085938 C 616.757812 178.5625 616.757812 214.21875 616.757812 214.21875 L 626.363281 202.378906 C 635.285156 191.378906 646.839844 182.457031 660.324219 178.160156 C 668.066406 175.691406 676.222656 174.484375 684.476562 174.65625 L 685.816406 174.691406 C 717.988281 175.363281 746.144531 196.511719 755.75 227.226562 L 756.078125 228.289062 C 764.1875 254.246094 768.070312 281.015625 767.691406 307.972656 C 766.523438 391.757812 760 552.507812 663.625 785.90625 L 261.851562 785.90625 " fill-opacity="1" fill-rule="nonzero"/><g clip-path="url(#fe15b65202)"><path fill="#111111" d="M 647.410156 761.796875 L 274.585938 761.796875 L 58.5 443.273438 C 40.21875 416.5 46.925781 379.554688 73.425781 360.910156 C 98.695312 343.128906 132.914062 371.496094 153.027344 394.960938 C 171.636719 414.25 204.261719 401.082031 204.261719 374.296875 L 204.261719 168.691406 C 204.261719 162.414062 205.648438 107.421875 253.101562 104.4375 C 273.757812 104.695312 291.273438 118.042969 297.859375 136.46875 L 297.859375 267.253906 C 297.859375 282.78125 310.449219 295.378906 325.980469 295.378906 C 341.511719 295.378906 354.113281 282.78125 354.113281 267.253906 L 354.113281 137.710938 C 356.265625 82.753906 361.085938 75.753906 362.753906 72.503906 C 370.875 56.683594 383.085938 49.25 402.5 48.203125 C 402.695312 48.203125 402.890625 48.203125 403.085938 48.203125 L 407.273438 48.507812 C 420.90625 49.503906 433.371094 56.976562 440.226562 68.804688 C 448.503906 83.105469 452.980469 99.414062 453.175781 115.902344 C 453.359375 132.78125 453.359375 157.960938 453.359375 157.984375 L 453.359375 240.882812 L 453.382812 240.847656 L 453.382812 264.746094 C 453.382812 280.273438 465.984375 292.859375 481.515625 292.859375 C 497.046875 292.859375 509.636719 280.273438 509.636719 264.746094 L 509.636719 142.113281 C 512.023438 138.574219 514.796875 135.507812 517.902344 133.144531 C 525.109375 127.695312 533.675781 124.617188 542.710938 124.261719 L 547.773438 124.066406 C 564.085938 123.542969 579.132812 131.894531 587.410156 146.777344 C 591 153.25 592.875 160.527344 592.777344 167.792969 C 592.644531 178.34375 592.644531 214.21875 592.644531 214.21875 L 592.644531 277.742188 C 592.644531 293.296875 605.265625 305.917969 620.824219 305.917969 C 636.394531 305.917969 649.003906 293.296875 649.003906 277.742188 L 649.003906 213.171875 C 653.59375 208.476562 659.875 203.59375 667.652344 201.113281 C 672.925781 199.433594 678.378906 198.605469 683.976562 198.75 L 685.367188 198.789062 C 707.179688 199.238281 726.269531 213.585938 732.742188 234.410156 L 733.074219 235.480469 C 740.402344 258.90625 743.929688 283.171875 743.589844 307.632812 C 742.128906 411.851562 729.710938 557.117188 647.410156 761.796875 Z M 779.085938 221.105469 L 778.757812 220.046875 C 766.050781 179.402344 728.910156 151.496094 686.304688 150.597656 L 684.976562 150.5625 C 674.117188 150.339844 663.34375 151.898438 653.011719 155.199219 C 648.808594 156.535156 644.707031 158.203125 640.703125 160.199219 C 639.667969 147.335938 635.820312 134.65625 629.210938 122.753906 C 612.402344 92.511719 580.496094 74.585938 545.875 75.902344 L 540.824219 76.109375 C 525.800781 76.691406 511.363281 80.867188 498.496094 88.289062 C 495.492188 73.503906 490.171875 59.203125 482.722656 46.011719 C 467.859375 19.664062 440.957031 2.640625 410.777344 0.4375 L 403.863281 0 C 401.464844 0 399.078125 0.0976562 396.71875 0.28125 C 361.890625 3.03125 335.304688 20.394531 319.871094 50.480469 C 316.363281 57.28125 313.613281 64.800781 311.191406 74.148438 L 310.777344 75.890625 C 294.574219 63.5625 274.367188 56.234375 252.480469 56.234375 L 251.203125 56.257812 C 185.832031 59.703125 156.054688 116.960938 156.054688 168.691406 L 156.054688 285.617188 L 157.503906 339.503906 C 121.132812 297.070312 71.015625 302.910156 45.683594 321.480469 C -1.597656 356.152344 -14.378906 422.039062 18.683594 470.449219 L 249.121094 810 L 679.753906 810 L 685.914062 795.09375 C 776.796875 574.984375 790.238281 419.324219 791.796875 308.300781 C 792.210938 278.742188 787.9375 249.402344 779.085938 221.105469 " fill-opacity="1" fill-rule="nonzero"/></g></svg>